<svg xmlns="http://www.w3.org/2000/svg" xmlns:xlink="http://www.w3.org/1999/xlink" width="1080" zoomAndPan="magnify" viewBox="0 0 810 809.999993" height="1080" preserveAspectRatio="xMidYMid meet" version="1.0"><path fill="#e20e28" d="M 790.449219 534.246094 C 621.996094 524.167969 452.261719 541.542969 285.527344 565.5625 C 229.878906 574.105469 174.429688 584.0625 119.886719 596.746094 C 111.671875 598.65625 103.472656 593.539062 101.5625 585.324219 C 99.945312 578.382812 103.355469 571.429688 109.421875 568.308594 C 153.089844 546.671875 198.703125 531.859375 244.570312 519.359375 C 306.972656 502.296875 373.53125 489.984375 440.792969 480.234375 C 360.375 483.355469 280.023438 490.140625 200.101562 498.648438 C 155.460938 503.796875 110.734375 508.875 66.792969 517.808594 C 60.316406 519.171875 54.246094 520.726562 48.519531 522.496094 C 31.933594 527.339844 21.265625 505.160156 35.652344 495.304688 C 60.65625 477.695312 87.246094 467.15625 114.925781 456.347656 C 141.789062 446.257812 168.925781 437.628906 196.214844 429.667969 C 360.578125 384.011719 528.792969 352.402344 699.976562 349.453125 C 713.40625 349.4375 724.316406 360.3125 724.351562 373.746094 C 724.382812 387.351562 713.167969 398.382812 699.566406 398.109375 C 533.378906 398.007812 366.917969 424.824219 205.757812 464.378906 C 204.292969 464.753906 202.84375 465.144531 201.378906 465.539062 C 251.660156 459.894531 302.148438 456.007812 352.652344 452.597656 C 457.800781 446.75 563.632812 441.464844 668.628906 454.320312 C 686.699219 457.765625 684.6875 484.085938 666.125 484.511719 C 619.710938 484.617188 572.835938 488.605469 526.492188 494.042969 C 442.394531 504.121094 358.175781 517.484375 276.273438 539.019531 C 278.046875 538.761719 279.835938 538.523438 281.609375 538.285156 C 450.695312 516.992188 621.550781 502.550781 791.949219 515.765625 C 803.589844 517.023438 802.960938 534.703125 790.449219 534.246094 Z M 790.449219 534.246094 " fill-opacity="1" fill-rule="nonzero"/><path fill="#ff9831" d="M 731.035156 587.929688 C 717.546875 573.6875 696.808594 564.175781 678.34375 562.207031 C 629.027344 556.949219 581.097656 572.085938 532.472656 576.457031 C 441.066406 584.679688 349.796875 594.769531 259.121094 608.976562 C 211.628906 616.417969 76.253906 613.15625 67.277344 678.511719 C 64.3125 700.160156 84.65625 718.402344 105.402344 725.214844 C 211.566406 760.09375 323.71875 761.96875 433.789062 749.191406 C 479.53125 743.878906 525.175781 735.417969 569.933594 724.675781 C 621.351562 712.335938 713.675781 694.488281 740.179688 642.140625 C 750.78125 621.203125 744.546875 602.195312 731.035156 587.929688 Z M 731.035156 587.929688 " fill-opacity="1" fill-rule="nonzero"/><path fill="#ff9831" d="M 153.25 395.597656 C 255.105469 373.828125 357.625 354.773438 461.003906 341.828125 C 513.578125 335.246094 566.355469 330.226562 619.269531 327.203125 C 662.0625 324.757812 738.855469 342.644531 736.898438 275.972656 C 735.925781 242.792969 723.09375 210.09375 703.101562 180.636719 C 665.960938 125.914062 604.09375 82.386719 547.566406 67.742188 C 499.335938 55.253906 452.613281 47.933594 402.511719 49.546875 C 327.839844 51.949219 252.535156 69.660156 187.25 106.695312 C 102.011719 155.050781 18.046875 249.832031 11.621094 351.914062 C 6.03125 440.800781 103.222656 406.292969 153.25 395.597656 Z M 395.042969 116.378906 C 398.695312 111.796875 403.695312 108.285156 409.234375 106.390625 C 412.988281 105.109375 416.078125 109.707031 413.492188 112.714844 C 409.96875 116.8125 403.804688 119.351562 397.746094 120.78125 C 395.230469 121.375 393.433594 118.398438 395.042969 116.378906 Z M 325.09375 102.132812 C 332.042969 93.410156 341.570312 86.71875 352.125 83.109375 C 359.273438 80.667969 365.160156 89.421875 360.234375 95.152344 C 353.519531 102.960938 341.78125 107.792969 330.238281 110.519531 C 325.449219 111.652344 322.023438 105.980469 325.09375 102.132812 Z M 313.328125 158.875 C 319.738281 150.835938 328.519531 144.667969 338.25 141.34375 C 344.839844 139.089844 350.265625 147.164062 345.722656 152.445312 C 339.535156 159.640625 328.710938 164.097656 318.074219 166.609375 C 313.660156 167.652344 310.5 162.425781 313.328125 158.875 Z M 269.300781 124.015625 C 274.078125 118.027344 280.617188 113.433594 287.863281 110.957031 C 292.773438 109.277344 296.816406 115.292969 293.433594 119.222656 C 288.824219 124.585938 280.761719 127.90625 272.835938 129.777344 C 269.546875 130.554688 267.195312 126.660156 269.300781 124.015625 Z M 269.300781 124.015625 " fill-opacity="1" fill-rule="nonzero"/></svg>